<?xml version="1.0" encoding="utf-8"?>
<!-- Generator: Adobe Illustrator 28.2.0, SVG Export Plug-In . SVG Version: 6.00 Build 0)  -->
<svg version="1.1" id="Layer_1" xmlns="http://www.w3.org/2000/svg" xmlns:xlink="http://www.w3.org/1999/xlink" x="0px" y="0px"
	 viewBox="0 0 206 231" style="enable-background:new 0 0 206 231;" xml:space="preserve">
<style type="text/css">
	.st0{fill:#FFFFFF;}
	.st1{fill:#E06666;}
</style>
<path class="st0" d="M160,181.1H46.3c-16.6,0-30-13.4-30-30v-114c0-16.6,13.4-30,30-30H160c16.6,0,30,13.4,30,30v114
	C190,167.7,176.6,181.1,160,181.1z"/>
<g>
	<path class="st1" d="M146.1,0.9H60c-27.2,0-49.2,22-49.2,49.2v86.2c0,27.2,22,49.2,49.2,49.2h86.2c27.2,0,49.2-22,49.2-49.2V50.1
		C195.3,22.9,173.3,0.9,146.1,0.9z M185,136.8c0,21.1-17.2,38.3-38.3,38.3H59.4c-21.1,0-38.3-17.2-38.3-38.3V49.5
		c0-21.1,17.2-38.3,38.3-38.3h87.3c21.1,0,38.3,17.2,38.3,38.3V136.8z"/>
	<path class="st1" d="M146.7,18.7H59.4c-17,0-30.8,13.8-30.8,30.8v87.3c0,17,13.8,30.8,30.8,30.8h87.3c17,0,30.8-13.8,30.8-30.8
		V49.5C177.5,32.5,163.7,18.7,146.7,18.7z M133.6,101.4v15.2c0,1.8-0.8,3.5-2.3,4.6c-3.8,2.9-12.4,7.8-27.3,7.8
		c-20.9,0-36.1-14.1-36.1-35.8c0-21.6,15.5-35.8,37.2-35.8c10.7,0,14.4,3.3,19,3.3c2.2,0,2.2-2.4,4.3-2.4c0,0,2.5-0.1,2.9,2.2
		l3.4,19.3c0,3-3.4,3-3.4,3c-4.7,0-7.7-17.1-22.3-17.1c-12.3,0-20.4,9.8-20.4,26.1c0,15.9,7.7,27.1,20.4,27.1c3.2,0,5.9-1.1,5.9-1.1
		v-16.2c0-3.6-6.1-4.9-6.1-7.5c0,0,0-2.3,2.8-2.3h23.5v0c2.8,0,2.8,2.3,2.8,2.3C138.1,96.5,133.6,97.8,133.6,101.4z"/>
</g>
<polygon class="st1" points="82.8,181.7 82.8,230.5 99.3,230.5 99.3,208.6 106.8,208.6 106.8,230.5 123.3,230.5 123.3,181.7 "/>
</svg>
