<?xml version="1.0" encoding="utf-8"?>
<!-- Generator: Adobe Illustrator 28.2.0, SVG Export Plug-In . SVG Version: 6.00 Build 0)  -->
<svg version="1.1" id="Layer_1" xmlns="http://www.w3.org/2000/svg" xmlns:xlink="http://www.w3.org/1999/xlink" x="0px" y="0px"
	 viewBox="0 0 31.9 32" style="enable-background:new 0 0 31.9 32;" xml:space="preserve">
<style type="text/css">
	.st0{fill:#FFFFFF;}
	.st1{fill:#E06666;}
</style>
<path class="st0" d="M16.5,25.1h-0.6c-6.5,0-11.8-5.3-11.8-11.8v-0.6c0-6.5,5.3-11.8,11.8-11.8h0.6c6.5,0,11.8,5.3,11.8,11.8v0.6
	C28.3,19.8,23,25.1,16.5,25.1z"/>
<g>
	<path class="st1" d="M22.2,0h-12C6.4,0,3.3,3,3.3,6.8v12c0,3.8,3.1,6.9,6.9,6.9h12c3.8,0,6.9-3.1,6.9-6.9v-12C29,3,26,0,22.2,0z
		 M27.6,18.9c0,2.9-2.4,5.3-5.3,5.3H10.1c-2.9,0-5.3-2.4-5.3-5.3V6.7c0-2.9,2.4-5.3,5.3-5.3h12.2c2.9,0,5.3,2.4,5.3,5.3V18.9z"/>
	<path class="st1" d="M22.3,2.4H10.1c-2.4,0-4.3,1.9-4.3,4.3v12.2c0,2.4,1.9,4.3,4.3,4.3h12.2c2.4,0,4.3-1.9,4.3-4.3V6.7
		C26.6,4.4,24.6,2.4,22.3,2.4z M20.4,14v2.1c0,0.3-0.1,0.5-0.3,0.6c-0.5,0.4-1.7,1.1-3.8,1.1c-2.9,0-5-2-5-5c0-3,2.2-5,5.2-5
		c1.5,0,2,0.5,2.7,0.5c0.3,0,0.3-0.3,0.6-0.3c0,0,0.3,0,0.4,0.3l0.5,2.7c0,0.4-0.5,0.4-0.5,0.4C19.5,11.4,19.1,9,17,9
		c-1.7,0-2.8,1.4-2.8,3.6c0,2.2,1.1,3.8,2.8,3.8c0.4,0,0.8-0.2,0.8-0.2V14c0-0.5-0.8-0.7-0.8-1c0,0,0-0.3,0.4-0.3h3.3v0
		c0.4,0,0.4,0.3,0.4,0.3C21.1,13.3,20.4,13.5,20.4,14z"/>
</g>
<polygon class="st1" points="13.4,25.2 13.4,32 15.6,32 15.6,28.9 16.7,28.9 16.7,32 19,32 19,25.2 "/>
</svg>
