<?xml version="1.0" encoding="utf-8"?>
<!-- Generator: Adobe Illustrator 28.2.0, SVG Export Plug-In . SVG Version: 6.00 Build 0)  -->
<svg version="1.1" id="Layer_1" xmlns="http://www.w3.org/2000/svg" xmlns:xlink="http://www.w3.org/1999/xlink" x="0px" y="0px"
	 viewBox="0 0 37.1 36" style="enable-background:new 0 0 37.1 36;" xml:space="preserve">
<style type="text/css">
	.st0{fill:#FFFFFF;}
	.st1{fill:#E06666;}
</style>
<path class="st0" d="M24.2,27.4H11.8c-2.8,0-5-2.3-5-5V10c0-2.8,2.3-5,5-5h12.4c2.8,0,5,2.3,5,5v12.4C29.3,25.2,27,27.4,24.2,27.4z"
	/>
<g>
	<path class="st1" d="M23.7,4.1H12.4C8.9,4.1,6,7,6,10.5v11.2c0,3.5,2.9,6.4,6.4,6.4h11.2c3.5,0,6.4-2.9,6.4-6.4V10.5
		C30.1,7,27.2,4.1,23.7,4.1z M28.7,21.8c0,2.8-2.2,5-5,5H12.3c-2.8,0-5-2.2-5-5V10.4c0-2.8,2.2-5,5-5h11.4c2.8,0,5,2.2,5,5V21.8z"/>
	<path class="st1" d="M23.7,6.4H12.3c-2.2,0-4,1.8-4,4v11.4c0,2.2,1.8,4,4,4h11.4c2.2,0,4-1.8,4-4V10.4C27.8,8.2,26,6.4,23.7,6.4z
		 M22,17.2v2c0,0.2-0.1,0.5-0.3,0.6c-0.5,0.4-1.6,1-3.6,1c-2.7,0-4.7-1.8-4.7-4.7c0-2.8,2-4.7,4.8-4.7c1.4,0,1.9,0.4,2.5,0.4
		c0.3,0,0.3-0.3,0.6-0.3c0,0,0.3,0,0.4,0.3l0.4,2.5c0,0.4-0.4,0.4-0.4,0.4c-0.6,0-1-2.2-2.9-2.2c-1.6,0-2.7,1.3-2.7,3.4
		s1,3.5,2.7,3.5c0.4,0,0.8-0.1,0.8-0.1v-2.1c0-0.5-0.8-0.6-0.8-1c0,0,0-0.3,0.4-0.3h3.1l0,0c0.4,0,0.4,0.3,0.4,0.3
		C22.6,16.6,22,16.7,22,17.2z"/>
</g>
<polygon class="st1" points="15.4,27.7 15.4,34.1 17.6,34.1 17.6,31.2 18.5,31.2 18.5,34.1 20.7,34.1 20.7,27.7 "/>
</svg>
